<svg xmlns="http://www.w3.org/2000/svg" width="1100" height="430" viewBox="0 0 1100 430">
<rect width="1100" height="430" fill="white"/>
<text x="550" y="38" text-anchor="middle" font-family="sans-serif" font-size="26" font-weight="bold">Handshake / Control Concept</text>
<line x1="100" y1="100" x2="1000" y2="100" stroke="#333" stroke-width="2"/>
<line x1="100" y1="170" x2="1000" y2="170" stroke="#333" stroke-width="2"/>
<line x1="100" y1="240" x2="1000" y2="240" stroke="#333" stroke-width="2"/>
<line x1="100" y1="310" x2="1000" y2="310" stroke="#333" stroke-width="2"/>
<text x="40" y="105" font-family="sans-serif" font-size="16">clk</text>
<text x="30" y="175" font-family="sans-serif" font-size="16">start</text>
<text x="30" y="245" font-family="sans-serif" font-size="16">state</text>
<text x="30" y="315" font-family="sans-serif" font-size="16">done</text>
<path d="M100 100 L125 80 L175 120 L225 80 L275 120 L325 80 L375 120 L425 80 L475 120 L525 80 L575 120 L625 80 L675 120 L725 80 L775 120 L825 80 L875 120 L925 80 L975 120" fill="none" stroke="#333" stroke-width="2"/>
<path d="M100 170 L175 170 L175 135 L225 135 L225 170 L1000 170" fill="none" stroke="#333" stroke-width="3"/>
<text x="300" y="205" font-family="sans-serif" font-size="14">one-cycle pulse</text>
<path d="M100 240 L225 240 L225 220 L875 220 L875 240 L925 240 L925 200 L1000 200" fill="none" stroke="#333" stroke-width="3"/>
<text x="500" y="265" text-anchor="middle" font-family="sans-serif" font-size="14">COMPUTE: 16 outputs × 4 MAC terms</text>
<path d="M875 310 L925 310 L925 275 L975 275 L975 310 L1000 310" fill="none" stroke="#333" stroke-width="3"/>
<text x="950" y="350" text-anchor="middle" font-family="sans-serif" font-size="14">done = 1 cycle; C valid</text>
</svg>